# xmcd
#
# Track frame offsets: 
#        150
#        13395
#        26937
#        40200
#        52882
#        65967
#        80220
#        93987
#        106992
#        119545
#        133967
#        145552
#        156897
#        170385
#        180397
#        193575
#        204040
#        215827
#        226387
#        238212
#        249872
#        261740
#        272435
#        285175
#        295927
#        308872
#        319705
#        331690
#        342207
#
# Disc length: 4692 seconds
#
# Revision: 2
# Processed by: cddbd v1.5.2PL0 Copyright (c) Steve Scherf et al.
# Submitted via: ExactAudioCopy v1.1
#
DISCID=b212521d
DTITLE=Floyd Tillman - I Love You So Much It Hurts_CD4
DYEAR=2004
DGENRE=Country
TTITLE0=I've Got The Craziest Feeling 
TTITLE1=Rose Of Old Monterey 
TTITLE2=I Don't Care Anymore 
TTITLE3=Biff and Margie Collie - Why Are You Blue
TTITLE4=Biff and Margie Collie - I Don't Care Who Knows
TTITLE5=I'm Falling For You 
TTITLE6=You're That To Me 
TTITLE7=Each Night At Nine 
TTITLE8=I Love You Just As You Are 
TTITLE9=Guess I'll Be Playing The Field From Now On 
TTITLE10=Don't Say You Love Me, Just Show It 
TTITLE11=Why Do I Drink 
TTITLE12=I'll Still Be Loving You 
TTITLE13=Margie Collie - If I Loved A Liar
TTITLE14=Margie Collie - Each Little Thing Reminds Me Of You
TTITLE15=Margie Collie - I Got A Feller
TTITLE16=Margie Collie - Who Cares
TTITLE17=Good Bye Tomorrows (Hello Yesterday) 
TTITLE18=Take My Love With You Too 
TTITLE19=I Finally Saw The Light 
TTITLE20=It's Over, All Over 
TTITLE21=The Worm Has Turned 
TTITLE22=A Small Little Town 
TTITLE23=More Than Anything 
TTITLE24=Just One More Time 
TTITLE25=I'll Never Be The Same Without You 
TTITLE26=Call On Me (And I'll Be There) 
TTITLE27=One More Day, Wasted Away 
TTITLE28=Sometime, Somewhere, Somehow 
EXTD=YEAR: 2004
EXTT0=
EXTT1=
EXTT2=
EXTT3=
EXTT4=
EXTT5=
EXTT6=
EXTT7=
EXTT8=
EXTT9=
EXTT10=
EXTT11=
EXTT12=
EXTT13=
EXTT14=
EXTT15=
EXTT16=
EXTT17=
EXTT18=
EXTT19=
EXTT20=
EXTT21=
EXTT22=
EXTT23=
EXTT24=
EXTT25=
EXTT26=
EXTT27=
EXTT28=
PLAYORDER=
